<?xml version="1.0" encoding="utf-8"?>
<!-- Generator: Adobe Illustrator 19.2.1, SVG Export Plug-In . SVG Version: 6.00 Build 0)  -->
<svg version="1.1" id="Layer_1" xmlns="http://www.w3.org/2000/svg" xmlns:xlink="http://www.w3.org/1999/xlink" x="0px" y="0px"
	 viewBox="0 0 329 329" style="enable-background:new 0 0 329 329;" xml:space="preserve">
<style type="text/css">
	.st0{fill:#CA2026;}
	.st1{fill:#FEFEFE;}
</style>
<title>cnn-tech-logo</title>
<rect x="0.4" y="0.4" class="st0" width="328.6" height="328.6"/>
<path class="st1" d="M264.8,111.7v83.1c0,3.5-1.5,6.5-4.8,7.4c-0.6,0.2-1.2,0.3-1.9,0.3c-2.5,0-5.3-1.2-7.4-4.7
	c-0.1-0.2-8.4-14.5-21-36.3c-9.1-15.7-18.9-32.5-19.1-32.8c-1-1.7-2-2-3.3-1.6c-0.8,0.2-1.4,1-1.4,2.6v65.2
	c-0.1,3.5-2.5,6.5-5.9,7.4c-2.8,0.8-6.7,0-9.3-4.5L171.2,164c-9.8-16.9-20.3-34.9-20.4-35.2c-0.8-1.5-2.4-2.4-4.1-2.1
	c-1.4,0.2-2.4,1.5-2.4,2.9v63.7c0,4.4-2.6,8-7,8h-32.4c-21.8-0.1-39.4-17.8-39.4-39.6c0-21.7,17.7-37.1,39.4-37.1h18.5v-12.9h-18.5
	c-28.6,0-51.9,22-51.9,50.7c0,28.7,23.2,51.9,51.9,51.9h32.7c12.4,0,20.6-7.5,20.6-20.9v-29.6c0,0,20.7,35.9,21.7,37.6
	c13.2,22.5,39.9,13.2,39.9-6.2v-31.4c0,0,18.9,35.9,19.9,37.6c13.2,22.5,38.1,13.2,38.1-6.2v-83.5H264.8z"/>
<path class="st1" d="M104.3,141.6h19v-12.9h-19.2c-19,0-35.1,14-35.1,33s15.4,35.7,34.4,35.7h33.1c1.8-0.1,3.2-1.6,3.3-3.3v-64.8
	c0-3.5,1.6-6.8,5.5-7.4c2.8-0.8,5.7,0,8.3,4.5c0.1,0.2,8.1,13.9,20.2,34.8l19.5,33.7c1,1.7,4.1,2.7,5.5,2.3c1.4-0.3,2.3-1.6,2.2-3.1
	v-66.2c0-2.5,0.7-5.2,4-6.1c3.3-0.9,6.5,0.3,8.8,4.5c0,0,7.1,12.3,18.7,32.3c10.2,17.6,21.2,36.6,21.2,36.6c0.7,1.5,2.4,2.3,4,1.9
	c1.2-0.3,2.1-1.4,2.1-2.6v-83.7h-12.9v49.5c0,0-19.9-35.9-20.9-37.5c-12-22.4-36.9-13.2-36.9,6.2v31.4c0,0-22.5-36-23.4-37.5
	c-13.2-22.5-39.3-13.2-39.3,6.1v51.4c0,1.9-0.3,3.2-2.4,3.2h-19.6c-12.1,0-22-9.9-22-22C82.4,149.2,92.2,141.6,104.3,141.6z"/>
</svg>
