<svg xmlns="http://www.w3.org/2000/svg" viewBox="0 0 279 109.64"><title>CNNTech - Tech</title><g id="Layer_2" data-name="Layer 2"><g id="Layer_1-2" data-name="Layer 1"><path d="M246.46,30.76A32.27,32.27,0,0,0,228.85,36V0H214V65.09l0,13.88h14.91V61.82h0a17.74,17.74,0,0,1,17.6-16.19c10.07,0,17.66,7.22,17.66,16.78v45.22H279V62.42C279,44.66,264.71,30.76,246.46,30.76Z" fill="#000"/><path d="M169.63,109.25a39.15,39.15,0,1,1,32.15-62.19l-11.57,8.68a26.21,26.21,0,0,0-20.58-10.81C156,44.93,145,56.5,145,70.1a24.7,24.7,0,0,0,24.67,24.67,25.76,25.76,0,0,0,20.49-10.18l11.51,8.75A39.33,39.33,0,0,1,169.63,109.25Z" fill="#000"/><path d="M123.92,70.5a39,39,0,1,0-7.1,22.61l-12.2-8.51a24.66,24.66,0,0,1-44.51-9.71h63.72A33,33,0,0,0,123.92,70.5Zm-39.55-26c11.33,0,21.88,7.66,23.76,19.4H60.61C62.46,52.36,73,44.54,84.38,44.54Z" fill="#000"/><rect x="213.94" y="92.46" width="14.8" height="15.3" fill="#f000"/><path d="M37,44.41V31.66H14.87V7.17H0V74a34.63,34.63,0,0,0,34.59,34.59h2.29V93.68H34.59A19.74,19.74,0,0,1,14.87,74V44.41Z" fill="#000"/><rect x="213.94" y="92.46" width="14.8" height="15.3" fill="#000"/></g></g></svg>
