<svg xmlns="http://www.w3.org/2000/svg" viewBox="0 0 253.39 116.37"><defs><style>.cls-1{fill:#fff;}.cls-2{fill:#faa431;}</style></defs><title>Asset 4</title><g id="Layer_2" data-name="Layer 2"><g id="Layer_1-2" data-name="Layer 1"><path class="cls-1" d="M0,0V116.37H116.37V0ZM41.81,65.64V44.89c0-7.81,10.09-11.55,15.43-2.49L66,57.55V44.89c0-7.81,10.09-11.55,15.43-2.49l8.8,15.14V37.27h5V71.33a1,1,0,0,1-.73,1c-.53.15-1.1-.18-1.51-.88L84.57,56.88,77,43.87a3.31,3.31,0,0,0-3.75-1.8,3,3,0,0,0-2.2,3V71.33a1,1,0,0,1-.73,1c-.54.15-1.1-.18-1.51-.88L60.95,57.91l-8.15-14A3.32,3.32,0,0,0,49,42.07a3,3,0,0,0-2.21,3V70.76a1.41,1.41,0,0,1-1.32,1.31H32.45a13.89,13.89,0,1,1,0-27.77h6.78v5H32.5A8.86,8.86,0,1,0,32.5,67h7.92A1.38,1.38,0,0,0,41.81,65.64Zm60.5,5.84c0,7.81-10.09,11.55-15.43,2.49L78.09,58.82V71.48C78.09,79.29,68,83,62.66,74c-.39-.66-8.8-15.14-8.8-15.14V70.75c0,5.42-3.22,8.35-8.23,8.35H32.45a20.92,20.92,0,1,1,0-41.83h6.78v5H32.45a15.89,15.89,0,1,0,0,31.79H45.5a3.41,3.41,0,0,0,3.33-3.32V45a1,1,0,0,1,.73-1c.53-.15,1.1.18,1.51.88l8.14,14L67.09,72.5a3.32,3.32,0,0,0,3.77,1.8,3,3,0,0,0,2.21-3V45a1,1,0,0,1,.72-1c.53-.14,1.08.19,1.49.88l7.54,13L91.32,72.5a3.46,3.46,0,0,0,3,1.91,3,3,0,0,0,3-3.08V37.27h5Z"/><path class="cls-1" d="M238.75,44.16a14.52,14.52,0,0,0-7.93,2.37V30.32h-6.69V59.61l0,6.25h6.71V58.14h0a8,8,0,0,1,7.92-7.29c4.53,0,7.95,3.25,7.95,7.55V78.77h6.69V58.41A14.3,14.3,0,0,0,238.75,44.16Z"/><path class="cls-1" d="M204.17,79.49a17.62,17.62,0,1,1,14.47-28l-5.21,3.91a11.8,11.8,0,0,0-9.26-4.86,11.31,11.31,0,0,0-11.11,11.33A11.12,11.12,0,0,0,204.17,73a11.59,11.59,0,0,0,9.22-4.58l5.18,3.94A17.7,17.7,0,0,1,204.17,79.49Z"/><path class="cls-1" d="M183.59,62.05a17.54,17.54,0,1,0-3.2,10.18l-5.49-3.83a11.1,11.1,0,0,1-20-4.37h28.68A14.83,14.83,0,0,0,183.59,62.05Zm-17.8-11.68a10.64,10.64,0,0,1,10.7,8.73H155.1A10.7,10.7,0,0,1,165.79,50.37Z"/><rect class="cls-2" x="224.11" y="71.94" width="6.66" height="6.89"/><path class="cls-1" d="M144.48,50.31V44.57h-10v-11h-6.69V63.61a15.59,15.59,0,0,0,15.57,15.57h1V72.48h-1a8.88,8.88,0,0,1-8.88-8.87V50.31Z"/><rect class="cls-1" x="224.11" y="71.94" width="6.66" height="6.89"/></g></g></svg>